<svg width="25" height="25" viewBox="0 0 25 25" fill="none" xmlns="http://www.w3.org/2000/svg">
<path opacity="0.4" d="M21.2494 17.0102C20.9577 17.7914 20.3432 18.3852 19.5411 18.656C18.4161 19.031 17.2598 19.3123 16.0932 19.5102C15.9786 19.531 15.864 19.5519 15.7494 19.5623C15.5619 19.5935 15.3744 19.6144 15.1869 19.6352C14.9577 19.6664 14.7182 19.6873 14.4786 19.7081C13.8223 19.7602 13.1765 19.7914 12.5202 19.7914C11.8536 19.7914 11.1869 19.7602 10.5307 19.6977C10.2494 19.6769 9.9786 19.6456 9.70777 19.6039C9.55152 19.5831 9.39527 19.5623 9.24944 19.5414C9.13485 19.5206 9.02027 19.5102 8.90569 19.4894C7.74944 19.3019 6.6036 19.0206 5.48902 18.6456C4.65569 18.3644 4.02027 17.7706 3.73902 17.0102C3.45777 16.2602 3.56194 15.3852 4.00985 14.6352L5.18694 12.6769C5.43694 12.2498 5.6661 11.4269 5.6661 10.9269V8.98936C5.6661 5.20811 8.73902 2.13519 12.5202 2.13519C16.2911 2.13519 19.364 5.20811 19.364 8.98936V10.9269C19.364 11.4269 19.5932 12.2498 19.8536 12.6769L21.0307 14.6352C21.4577 15.3644 21.5411 16.2185 21.2494 17.0102Z" fill="black"/>
<path d="M12.5007 11.2085C12.0632 11.2085 11.709 10.8543 11.709 10.4168V7.18766C11.709 6.75016 12.0632 6.396 12.5007 6.396C12.9382 6.396 13.2923 6.75016 13.2923 7.18766V10.4168C13.2819 10.8543 12.9277 11.2085 12.5007 11.2085Z" fill="black"/>
<path d="M15.4479 20.8438C15.0104 22.0521 13.8542 22.9167 12.5 22.9167C11.6771 22.9167 10.8646 22.5834 10.2917 21.9896C9.95833 21.6771 9.70833 21.2605 9.5625 20.8334C9.69792 20.8542 9.83333 20.8646 9.97917 20.8855C10.2187 20.9167 10.4688 20.948 10.7188 20.9688C11.3125 21.0209 11.9167 21.0521 12.5208 21.0521C13.1146 21.0521 13.7083 21.0209 14.2917 20.9688C14.5104 20.948 14.7292 20.9375 14.9375 20.9063C15.1042 20.8855 15.2708 20.8646 15.4479 20.8438Z" fill="black"/>
</svg>
