<svg width="19" height="18" viewBox="0 0 19 18" fill="none" xmlns="http://www.w3.org/2000/svg">
<path d="M14.7084 6.89062L11.7084 3.89062M14.7084 6.89062L10.9595 10.6394C10.4655 11.1334 9.86585 11.5234 9.17742 11.6422C8.48232 11.7621 7.6197 11.802 7.20833 11.3906C6.79696 10.9792 6.83686 10.1166 6.95675 9.4215C7.07548 8.73307 7.46551 8.13345 7.9595 7.63942L11.7084 3.89062M14.7084 6.89062C14.7084 6.89062 16.9583 4.64062 15.4583 3.14062C13.9583 1.64063 11.7084 3.89062 11.7084 3.89062M15.875 9C15.875 13.875 14.375 15.375 9.5 15.375C4.625 15.375 3.125 13.875 3.125 9C3.125 4.125 4.625 2.625 9.5 2.625" stroke="#01544E" stroke-width="1.375" stroke-linecap="round" stroke-linejoin="round"/>
</svg>
