<svg width="18" height="18" viewBox="0 0 18 18" fill="none" xmlns="http://www.w3.org/2000/svg">
<g clip-path="url(#clip0_1814_2549)">
<path d="M10.5 3H15V7.5H10.5V3Z" stroke="black" stroke-width="1.5" stroke-linecap="round" stroke-linejoin="round"/>
<path d="M3 10.5H7.5V15H3V10.5Z" stroke="black" stroke-width="1.5" stroke-linecap="round" stroke-linejoin="round"/>
<path d="M10.5 12.75C10.5 13.3467 10.7371 13.919 11.159 14.341C11.581 14.7629 12.1533 15 12.75 15C13.3467 15 13.919 14.7629 14.341 14.341C14.7629 13.919 15 13.3467 15 12.75C15 12.1533 14.7629 11.581 14.341 11.159C13.919 10.7371 13.3467 10.5 12.75 10.5C12.1533 10.5 11.581 10.7371 11.159 11.159C10.7371 11.581 10.5 12.1533 10.5 12.75Z" stroke="black" stroke-width="1.5" stroke-linecap="round" stroke-linejoin="round"/>
<path d="M3 5.25C3 5.54547 3.0582 5.83806 3.17127 6.11104C3.28434 6.38402 3.45008 6.63206 3.65901 6.84099C3.86794 7.04992 4.11598 7.21566 4.38896 7.32873C4.66194 7.4418 4.95453 7.5 5.25 7.5C5.54547 7.5 5.83806 7.4418 6.11104 7.32873C6.38402 7.21566 6.63206 7.04992 6.84099 6.84099C7.04992 6.63206 7.21566 6.38402 7.32873 6.11104C7.4418 5.83806 7.5 5.54547 7.5 5.25C7.5 4.95453 7.4418 4.66194 7.32873 4.38896C7.21566 4.11598 7.04992 3.86794 6.84099 3.65901C6.63206 3.45008 6.38402 3.28434 6.11104 3.17127C5.83806 3.0582 5.54547 3 5.25 3C4.95453 3 4.66194 3.0582 4.38896 3.17127C4.11598 3.28434 3.86794 3.45008 3.65901 3.65901C3.45008 3.86794 3.28434 4.11598 3.17127 4.38896C3.0582 4.66194 3 4.95453 3 5.25Z" stroke="black" stroke-width="1.5" stroke-linecap="round" stroke-linejoin="round"/>
</g>
<defs>
<clipPath id="clip0_1814_2549">
<rect width="18" height="18" fill="white"/>
</clipPath>
</defs>
</svg>
