<svg width="18" height="18" viewBox="0 0 18 18" fill="none" xmlns="http://www.w3.org/2000/svg">
<path d="M12.75 13.8226H9.75L6.41249 16.0425C5.91749 16.3725 5.25 16.0201 5.25 15.4201V13.8226C3 13.8226 1.5 12.3226 1.5 10.0726V5.57251C1.5 3.32251 3 1.82251 5.25 1.82251H12.75C15 1.82251 16.5 3.32251 16.5 5.57251V10.0726C16.5 12.3226 15 13.8226 12.75 13.8226Z" stroke="black" stroke-width="1.5" stroke-miterlimit="10" stroke-linecap="round" stroke-linejoin="round"/>
<path d="M8.99986 8.52002V8.36255C8.99986 7.85255 9.31488 7.58254 9.62988 7.36504C9.93738 7.15504 10.2448 6.88505 10.2448 6.39005C10.2448 5.70005 9.68986 5.14502 8.99986 5.14502C8.30986 5.14502 7.75488 5.70005 7.75488 6.39005" stroke="black" stroke-width="1.5" stroke-linecap="round" stroke-linejoin="round"/>
<path d="M8.99662 10.3125H9.00337" stroke="black" stroke-width="1.5" stroke-linecap="round" stroke-linejoin="round"/>
</svg>
