<svg width="18" height="18" viewBox="0 0 18 18" fill="none" xmlns="http://www.w3.org/2000/svg">
<path d="M5.99963 16.5H11.9996C15.0146 16.5 15.5546 15.2925 15.7121 13.8225L16.2746 7.8225C16.4771 5.9925 15.9521 4.5 12.7496 4.5H5.24963C2.04713 4.5 1.52213 5.9925 1.72463 7.8225L2.28713 13.8225C2.44463 15.2925 2.98463 16.5 5.99963 16.5Z" stroke="black" stroke-width="1.5" stroke-miterlimit="10" stroke-linecap="round" stroke-linejoin="round"/>
<path d="M6.00195 4.49976V3.89976C6.00195 2.57226 6.00195 1.49976 8.40195 1.49976H9.60195C12.002 1.49976 12.002 2.57226 12.002 3.89976V4.49976" stroke="black" stroke-width="1.5" stroke-miterlimit="10" stroke-linecap="round" stroke-linejoin="round"/>
<path d="M10.498 9.75V10.5C10.498 10.5075 10.498 10.5075 10.498 10.515C10.498 11.3325 10.4905 12 8.99805 12C7.51305 12 7.49805 11.34 7.49805 10.5225V9.75C7.49805 9 7.49805 9 8.24805 9H9.74805C10.498 9 10.498 9 10.498 9.75Z" stroke="black" stroke-width="1.5" stroke-miterlimit="10" stroke-linecap="round" stroke-linejoin="round"/>
<path d="M16.2395 8.24976C14.507 9.50976 12.527 10.2598 10.502 10.5148" stroke="black" stroke-width="1.5" stroke-miterlimit="10" stroke-linecap="round" stroke-linejoin="round"/>
<path d="M1.96387 8.45239C3.65137 9.60739 5.55637 10.3049 7.49887 10.5224" stroke="black" stroke-width="1.5" stroke-miterlimit="10" stroke-linecap="round" stroke-linejoin="round"/>
</svg>
