<svg width="18" height="19" viewBox="0 0 18 19" fill="none" xmlns="http://www.w3.org/2000/svg">
<path opacity="0.4" d="M15.4502 3.57495V5.22495C15.4502 5.82495 15.0752 6.57495 14.7002 6.94995L11.4752 9.79995C11.0252 10.175 10.7252 10.925 10.7252 11.525V14.75C10.7252 15.2 10.4252 15.8 10.0502 16.025L9.0002 16.7C8.0252 17.3 6.6752 16.625 6.6752 15.425V11.45C6.6752 10.925 6.3752 10.25 6.0752 9.87495L5.3252 9.08745L9.6902 2.07495H13.9502C14.7752 2.07495 15.4502 2.74995 15.4502 3.57495Z" fill="#292D32"/>
<path d="M8.4748 2.07495L4.5898 8.30745L3.2248 6.87495C2.8498 6.49995 2.5498 5.82495 2.5498 5.37495V3.64995C2.5498 2.74995 3.2248 2.07495 4.0498 2.07495H8.4748Z" fill="#292D32"/>
</svg>
