<svg width="23" height="23" viewBox="0 0 23 23" fill="none" xmlns="http://www.w3.org/2000/svg">
<path opacity="0.4" d="M18.1507 5.19405L13.1961 2.32863C12.2473 1.78238 10.7619 1.78238 9.81318 2.32863L4.81066 5.21322C2.82691 6.55488 2.71191 6.75613 2.71191 8.89322V14.0969C2.71191 16.234 2.82691 16.4448 4.849 17.8057L9.8036 20.6711C10.2828 20.949 10.8961 21.0832 11.4999 21.0832C12.1036 21.0832 12.7169 20.949 13.1865 20.6711L18.189 17.7865C20.1728 16.4448 20.2878 16.2436 20.2878 14.1065V8.89322C20.2878 6.75613 20.1728 6.55488 18.1507 5.19405Z" fill="black"/>
<path d="M11.5003 14.6145C13.2204 14.6145 14.6149 13.2201 14.6149 11.5C14.6149 9.77985 13.2204 8.38538 11.5003 8.38538C9.78021 8.38538 8.38574 9.77985 8.38574 11.5C8.38574 13.2201 9.78021 14.6145 11.5003 14.6145Z" fill="black"/>
</svg>
