<svg width="18" height="18" viewBox="0 0 18 18" fill="none" xmlns="http://www.w3.org/2000/svg">
<path d="M6.75 16.5H11.25C15 16.5 16.5 15 16.5 11.25V6.75C16.5 3 15 1.5 11.25 1.5H6.75C3 1.5 1.5 3 1.5 6.75V11.25C1.5 15 3 16.5 6.75 16.5Z" stroke="black" stroke-width="1.5" stroke-linecap="round" stroke-linejoin="round"/>
<path d="M6.75 7.5C7.57843 7.5 8.25 6.82843 8.25 6C8.25 5.17157 7.57843 4.5 6.75 4.5C5.92157 4.5 5.25 5.17157 5.25 6C5.25 6.82843 5.92157 7.5 6.75 7.5Z" stroke="black" stroke-width="1.5" stroke-linecap="round" stroke-linejoin="round"/>
<path d="M2.00293 14.2125L5.70043 11.73C6.29293 11.3325 7.14793 11.3775 7.68043 11.835L7.92793 12.0525C8.51293 12.555 9.45793 12.555 10.0429 12.0525L13.1629 9.37504C13.7479 8.87254 14.6929 8.87254 15.2779 9.37504L16.5004 10.425" stroke="black" stroke-width="1.5" stroke-linecap="round" stroke-linejoin="round"/>
</svg>
