<svg width="18" height="18" viewBox="0 0 18 18" fill="none" xmlns="http://www.w3.org/2000/svg">
<path d="M14.626 9.37512C14.626 8.34012 15.466 7.50012 16.501 7.50012V6.75012C16.501 3.75012 15.751 3.00012 12.751 3.00012H5.25098C2.25098 3.00012 1.50098 3.75012 1.50098 6.75012V7.12512C2.53598 7.12512 3.37598 7.96512 3.37598 9.00012C3.37598 10.0351 2.53598 10.8751 1.50098 10.8751V11.2501C1.50098 14.2501 2.25098 15.0001 5.25098 15.0001H12.751C15.751 15.0001 16.501 14.2501 16.501 11.2501C15.466 11.2501 14.626 10.4101 14.626 9.37512Z" stroke="black" stroke-width="1.5" stroke-linecap="round" stroke-linejoin="round"/>
<path d="M6.75 11.0624L11.25 6.56238" stroke="black" stroke-width="1.5" stroke-linecap="round" stroke-linejoin="round"/>
<path d="M11.2449 11.0625H11.2516" stroke="black" stroke-width="2" stroke-linecap="round" stroke-linejoin="round"/>
<path d="M6.7449 6.93738H6.75164" stroke="black" stroke-width="2" stroke-linecap="round" stroke-linejoin="round"/>
</svg>
