<svg width="18" height="19" viewBox="0 0 18 19" fill="none" xmlns="http://www.w3.org/2000/svg">
<path d="M12.5626 3.17V2C12.5626 1.6925 12.3076 1.4375 12.0001 1.4375C11.6926 1.4375 11.4376 1.6925 11.4376 2V3.125H6.56267V2C6.56267 1.6925 6.30767 1.4375 6.00017 1.4375C5.69267 1.4375 5.43767 1.6925 5.43767 2V3.17C3.41267 3.3575 2.43017 4.565 2.28017 6.3575C2.26517 6.575 2.44517 6.755 2.65517 6.755H15.3451C15.5626 6.755 15.7426 6.5675 15.7201 6.3575C15.5701 4.565 14.5876 3.3575 12.5626 3.17Z" fill="#292D32"/>
<path opacity="0.4" d="M15 7.88013C15.4125 7.88013 15.75 8.21763 15.75 8.63013V13.2501C15.75 15.5001 14.625 17.0001 12 17.0001H6C3.375 17.0001 2.25 15.5001 2.25 13.2501V8.63013C2.25 8.21763 2.5875 7.88013 3 7.88013H15Z" fill="#292D32"/>
<path d="M6.375 11.7499C6.18 11.7499 5.985 11.6674 5.8425 11.5324C5.7075 11.3899 5.625 11.1949 5.625 10.9999C5.625 10.8049 5.7075 10.6099 5.8425 10.4674C6.0525 10.2574 6.3825 10.1899 6.66 10.3099C6.7575 10.3474 6.84 10.3999 6.9075 10.4674C7.0425 10.6099 7.125 10.8049 7.125 10.9999C7.125 11.1949 7.0425 11.3899 6.9075 11.5324C6.765 11.6674 6.57 11.7499 6.375 11.7499Z" fill="#292D32"/>
<path d="M9 11.75C8.805 11.75 8.61 11.6675 8.4675 11.5325C8.3325 11.39 8.25 11.195 8.25 11C8.25 10.805 8.3325 10.61 8.4675 10.4675C8.535 10.4 8.6175 10.3475 8.715 10.31C8.9925 10.19 9.3225 10.2575 9.5325 10.4675C9.6675 10.61 9.75 10.805 9.75 11C9.75 11.195 9.6675 11.39 9.5325 11.5325C9.495 11.5625 9.4575 11.5925 9.42 11.6225C9.375 11.6525 9.33 11.675 9.285 11.69C9.24 11.7125 9.195 11.7275 9.15 11.735C9.0975 11.7425 9.0525 11.75 9 11.75Z" fill="#292D32"/>
<path d="M11.625 11.75C11.43 11.75 11.235 11.6675 11.0925 11.5325C10.9575 11.39 10.875 11.195 10.875 11C10.875 10.805 10.9575 10.61 11.0925 10.4675C11.1675 10.4 11.2425 10.3475 11.34 10.31C11.475 10.25 11.625 10.235 11.775 10.265C11.82 10.2725 11.865 10.2875 11.91 10.31C11.955 10.325 12 10.3475 12.045 10.3775C12.0825 10.4075 12.12 10.4375 12.1575 10.4675C12.2925 10.61 12.375 10.805 12.375 11C12.375 11.195 12.2925 11.39 12.1575 11.5325C12.12 11.5625 12.0825 11.5925 12.045 11.6225C12 11.6525 11.955 11.675 11.91 11.69C11.865 11.7125 11.82 11.7275 11.775 11.735C11.7225 11.7425 11.67 11.75 11.625 11.75Z" fill="#292D32"/>
<path d="M6.375 14.375C6.2775 14.375 6.18 14.3525 6.09 14.315C5.9925 14.2775 5.9175 14.225 5.8425 14.1575C5.7075 14.015 5.625 13.82 5.625 13.625C5.625 13.43 5.7075 13.235 5.8425 13.0925C5.9175 13.025 5.9925 12.9725 6.09 12.935C6.225 12.875 6.375 12.86 6.525 12.89C6.57 12.8975 6.615 12.9125 6.66 12.935C6.705 12.95 6.75 12.9725 6.795 13.0025C6.8325 13.0325 6.87 13.0625 6.9075 13.0925C7.0425 13.235 7.125 13.43 7.125 13.625C7.125 13.82 7.0425 14.015 6.9075 14.1575C6.87 14.1875 6.8325 14.225 6.795 14.2475C6.75 14.2775 6.705 14.3 6.66 14.315C6.615 14.3375 6.57 14.3525 6.525 14.36C6.4725 14.3675 6.4275 14.375 6.375 14.375Z" fill="#292D32"/>
<path d="M9 14.3748C8.805 14.3748 8.61 14.2923 8.4675 14.1573C8.3325 14.0148 8.25 13.8198 8.25 13.6248C8.25 13.4298 8.3325 13.2349 8.4675 13.0924C8.745 12.8149 9.255 12.8149 9.5325 13.0924C9.6675 13.2349 9.75 13.4298 9.75 13.6248C9.75 13.8198 9.6675 14.0148 9.5325 14.1573C9.39 14.2923 9.195 14.3748 9 14.3748Z" fill="#292D32"/>
<path d="M11.625 14.3748C11.43 14.3748 11.235 14.2923 11.0925 14.1573C10.9575 14.0148 10.875 13.8198 10.875 13.6248C10.875 13.4298 10.9575 13.2349 11.0925 13.0924C11.37 12.8149 11.88 12.8149 12.1575 13.0924C12.2925 13.2349 12.375 13.4298 12.375 13.6248C12.375 13.8198 12.2925 14.0148 12.1575 14.1573C12.015 14.2923 11.82 14.3748 11.625 14.3748Z" fill="#292D32"/>
</svg>
